# xmcd
#
# Track frame offsets: 
#        150
#        5075
#        16220
#        19990
#        25395
#        28267
#        35520
#        38975
#        57507
#        60362
#        69190
#        70492
#        73720
#        75812
#        84295
#        88610
#        89242
#        108400
#        109492
#        121155
#        122215
#        127222
#        128497
#        140762
#        145675
#        155790
#        159570
#        171190
#        173232
#        187347
#        188857
#        203130
#        204290
#        214645
#        219917
#        220880
#        227592
#        242665
#        244732
#        256520
#        257670
#        268110
#        269210
#        284592
#        288105
#        296412
#        312205
#        313760
#        327440
#        342190
#
# Disc length: 4643 seconds
#
# Revision: 0
# Processed by: cddbd v1.5.2PL0 Copyright (c) Steve Scherf et al.
# Submitted via: ExactAudioCopy v0.95b4
#
DISCID=fb122132
DTITLE=Sherwin Linton - The Last American Frontier Centennial
DYEAR=2002
DGENRE=Country
TTITLE0=Opening Dialogue
TTITLE1=I Ride An Old Paint
TTITLE2=Dialogue
TTITLE3=Little Old Sod Shanty On The Claim
TTITLE4=Dialogue With Zeeland Friends
TTITLE5=Wait For The Wagon, Phyllis
TTITLE6=Dialogue
TTITLE7=My Home Of Zeeland
TTITLE8=Zeeland Friends Sing Du Du Liegst Mir Im Herzen
TTITLE9=You You Tender And Wistful
TTITLE10=Dialogue
TTITLE11=In My Merry Oldsmobile
TTITLE12=Tony Schafner Dialogue
TTITLE13=Long Long Trail
TTITLE14=When You Wore A Tulip
TTITLE15=Dialogue
TTITLE16=Grandfather's Clock
TTITLE17=Dialogue
TTITLE18=Rosary My Mother Gave To Me
TTITLE19=Dialogue
TTITLE20=Til We Meet Again
TTITLE21=Dialogue
TTITLE22=Dixie Darlin'
TTITLE23=By The Light Of The Silvery Moon
TTITLE24=Put On Your Old Gray Bonnet
TTITLE25=Christmas Gifts, Zeeland Friends
TTITLE26=Keep On The Sunny Side
TTITLE27=Dialogue
TTITLE28=Wildwood Flower
TTITLE29=Dialogue
TTITLE30=Waitin' For A Train
TTITLE31=Dialogue
TTITLE32=Isle Of Capri
TTITLE33=When I Grow Too Old To Dream
TTITLE34=Dialogue
TTITLE35=Don't Sit Under The Apple Tree
TTITLE36=Have I Told You Lately That I Love You
TTITLE37=Whoopie John At Zeeland
TTITLE38=Lily Marlene
TTITLE39=Dialogue
TTITLE40=Milk Bucket Boogie
TTITLE41=Dialogue
TTITLE42=Ode To The Little Brown Shack
TTITLE43=Family Values -- Zeeland
TTITLE44=Dear Hearts and Gentle People
TTITLE45=I'll Meet You In Church
TTITLE46=Zeeland Folks Speak German "Ya Vol!"
TTITLE47=Fraulien
TTITLE48=Ragged Old Flag
TTITLE49=Zeeland Friends Sing God Bless America
EXTD=
EXTT0=
EXTT1=
EXTT2=
EXTT3=
EXTT4=
EXTT5=
EXTT6=
EXTT7=
EXTT8=
EXTT9=
EXTT10=
EXTT11=
EXTT12=
EXTT13=
EXTT14=
EXTT15=
EXTT16=
EXTT17=
EXTT18=
EXTT19=
EXTT20=
EXTT21=
EXTT22=
EXTT23=
EXTT24=
EXTT25=
EXTT26=
EXTT27=
EXTT28=
EXTT29=
EXTT30=
EXTT31=
EXTT32=
EXTT33=
EXTT34=
EXTT35=
EXTT36=
EXTT37=
EXTT38=
EXTT39=
EXTT40=
EXTT41=
EXTT42=
EXTT43=
EXTT44=
EXTT45=
EXTT46=
EXTT47=
EXTT48=
EXTT49=
PLAYORDER=
